<svg id="visual" viewBox="0 0 900 600" width="900" height="600" xmlns="http://www.w3.org/2000/svg" xmlns:xlink="http://www.w3.org/1999/xlink" version="1.1"><path d="M0 145L12.5 147C25 149 50 153 75 147C100 141 125 125 150 129C175 133 200 157 225 161C250 165 275 149 300 150C325 151 350 169 375 167C400 165 425 143 450 142C475 141 500 161 525 174C550 187 575 193 600 192C625 191 650 183 675 173C700 163 725 151 750 138C775 125 800 111 825 106C850 101 875 105 887.5 107L900 109L900 0L887.5 0C875 0 850 0 825 0C800 0 775 0 750 0C725 0 700 0 675 0C650 0 625 0 600 0C575 0 550 0 525 0C500 0 475 0 450 0C425 0 400 0 375 0C350 0 325 0 300 0C275 0 250 0 225 0C200 0 175 0 150 0C125 0 100 0 75 0C50 0 25 0 12.5 0L0 0Z" fill="#1c836c"></path><path d="M0 295L12.5 294C25 293 50 291 75 281C100 271 125 253 150 273C175 293 200 351 225 374C250 397 275 385 300 382C325 379 350 385 375 370C400 355 425 319 450 312C475 305 500 327 525 337C550 347 575 345 600 360C625 375 650 407 675 392C700 377 725 315 750 294C775 273 800 293 825 325C850 357 875 401 887.5 423L900 445L900 107L887.5 105C875 103 850 99 825 104C800 109 775 123 750 136C725 149 700 161 675 171C650 181 625 189 600 190C575 191 550 185 525 172C500 159 475 139 450 140C425 141 400 163 375 165C350 167 325 149 300 148C275 147 250 163 225 159C200 155 175 131 150 127C125 123 100 139 75 145C50 151 25 147 12.5 145L0 143Z" fill="#2c9f7a"></path><path d="M0 601L12.5 601C25 601 50 601 75 601C100 601 125 601 150 601C175 601 200 601 225 601C250 601 275 601 300 601C325 601 350 601 375 601C400 601 425 601 450 601C475 601 500 601 525 601C550 601 575 601 600 601C625 601 650 601 675 601C700 601 725 601 750 601C775 601 800 601 825 601C850 601 875 601 887.5 601L900 601L900 443L887.5 421C875 399 850 355 825 323C800 291 775 271 750 292C725 313 700 375 675 390C650 405 625 373 600 358C575 343 550 345 525 335C500 325 475 303 450 310C425 317 400 353 375 368C350 383 325 377 300 380C275 383 250 395 225 372C200 349 175 291 150 271C125 251 100 269 75 279C50 289 25 291 12.5 292L0 293Z" fill="#42bb86"></path></svg>
